<?xml version="1.0" encoding="UTF-8"?>
<svg id="Layer_1" data-name="Layer 1" xmlns="http://www.w3.org/2000/svg" viewBox="0 0 399.77 78.35">
  <defs>
    <style>
      .cls-1, .cls-2, .cls-3 {
        stroke-width: 0px;
      }

      .cls-2 {
        fill: #002757;
      }

      .cls-3 {
        fill: #0068d2;
      }
    </style>
  </defs>
  <g>
    <path class="cls-3" d="m77.34,41.52h0c0-2.13,1.73-3.86,3.86-3.86h23.85c2.77,0,4.35-1.43,4.35-3.71,0-2.42-1.58-3.81-4.35-3.81h-16.27c-7.07,0-11.42-4.25-11.42-10.34s4.06-10.39,11.52-10.39h24.02c2.13,0,3.86,1.73,3.86,3.86h0c0,2.13-1.73,3.86-3.86,3.86h-24.02c-2.18,0-3.51,1.24-3.51,3.46s1.38,3.46,3.51,3.46h16.17c7.57,0,11.62,3.36,11.62,10.53,0,6.18-3.81,10.78-11.62,10.78h-23.85c-2.13,0-3.86-1.73-3.86-3.86Z"/>
    <g>
      <path class="cls-2" d="m231.8,45.21c-10.14,0-17.59-7.84-17.59-18.18s7.45-17.44,17.59-17.44h18.84c1.66,0,3.01,1.35,3.01,3.01v1.62c0,1.66-1.35,3.01-3.01,3.01h-18.84c-5.73,0-9.94,4.26-9.94,10.19s4.16,10.14,9.94,10.14h13.62c.33,0,.59-.26.59-.59v-6.26c0-.33-.26-.59-.59-.59h-11.44c-1.66,0-3.01-1.35-3.01-3.01h0c0-1.66,1.35-3.01,3.01-3.01h16.64c1.68,0,3.03,1.36,3.03,3.03v15.05c0,1.68-1.36,3.03-3.03,3.03h-18.82Z"/>
      <path class="cls-2" d="m305.95,21.5v20.28c0,1.89-1.54,3.43-3.43,3.43h-.39c-1.89,0-3.43-1.54-3.43-3.43V13.66c0-2.79,1.47-4.51,3.82-4.51,1.13,0,2.01.39,3.09,1.42l23.32,22.39V12.68c0-1.89,1.54-3.43,3.43-3.43h.44c1.89,0,3.43,1.54,3.43,3.43v28.46c0,2.84-1.57,4.56-3.82,4.56-1.18,0-2.11-.44-3.14-1.47l-23.32-22.73Z"/>
      <path class="cls-2" d="m343.9,41.78V13.02c0-1.89,1.54-3.43,3.43-3.43h.78c1.89,0,3.43,1.54,3.43,3.43v28.76c0,1.89-1.54,3.43-3.43,3.43h-.78c-1.89,0-3.43-1.54-3.43-3.43Z"/>
      <path class="cls-2" d="m394.67,45.21c3.08,0,4.6-3.74,2.39-5.89l-16.53-16.06h0s-12.27-12.62-12.27-12.62c-.65-.66-1.53-1.04-2.46-1.04h-.14c-3.06,0-4.59,3.7-2.42,5.86l12.72,12.66-11.33,11.23c-2.17,2.16-.65,5.86,2.41,5.86h.77c.92,0,1.8-.37,2.44-1.02l11.04-11.22,10.89,11.21c.65.66,1.53,1.04,2.46,1.04h0Z"/>
      <path class="cls-2" d="m396.33,9.59h-.89c-.92,0-1.8.37-2.44,1.02l-8.81,8.94,5.17,5.17,9.38-9.26c2.18-2.15.66-5.87-2.41-5.87Z"/>
      <rect class="cls-2" x="261.91" y="37.57" width="30.52" height="7.64" rx="3.82" ry="3.82"/>
      <rect class="cls-2" x="261.91" y="23.29" width="30.52" height="7.64" rx="3.82" ry="3.82"/>
      <rect class="cls-2" x="261.91" y="9.59" width="30.52" height="7.64" rx="3.82" ry="3.82"/>
      <path class="cls-3" d="m205.37,41.38h0c0,2.12-1.72,3.83-3.83,3.83h-26.88c-1.93,0-2.8-2.41-1.31-3.64l25.7-21.26c2.49-2.06,6.26-.29,6.26,2.94h0c0,1.14-.51,2.22-1.38,2.94l-9.29,7.7-4.41,3.64h0s11.3,0,11.3,0c2.12,0,3.83,1.72,3.83,3.83Z"/>
      <path class="cls-3" d="m142.37,19.88l6.51,10.97h-8.03l-3.48,5.92h15.04l3.98,6.63c.67,1.12,1.88,1.8,3.18,1.8h.48c2.88,0,4.66-3.15,3.18-5.62l-16.89-28.04c-.88-1.47-2.01-2.45-3.67-2.45s-2.79.98-3.67,2.45l-16.86,28.04c-1.49,2.47.29,5.62,3.18,5.62h0c1.31,0,2.53-.69,3.19-1.82l13.87-23.5Z"/>
      <path class="cls-3" d="m170.36,13.43h0c0-2.12,1.72-3.83,3.83-3.83h26.88c1.93,0,2.8,2.41,1.31,3.64l-25.7,21.26c-2.49,2.06-6.26.29-6.26-2.94h0c0-1.14.51-2.22,1.38-2.94l9.29-7.7,4.41-3.64h0s-11.3,0-11.3,0c-2.12,0-3.83-1.72-3.83-3.83Z"/>
    </g>
    <g>
      <path class="cls-1" d="m86.55,59.45h2.02v5.4c0,2.99-1.5,4.4-5.3,4.4s-5.3-1.41-5.3-4.4v-5.4h2.14v5.4c0,1.71.74,2.37,3.23,2.37s3.22-.65,3.22-2.37v-5.4Z"/>
      <path class="cls-1" d="m95.35,62.68v6.43h-1.97v-8.56c0-.76.4-1.22,1.04-1.22.31,0,.54.11.84.39l6.33,6.07v-6.43h1.98v8.65c0,.77-.42,1.24-1.04,1.24-.32,0-.57-.12-.85-.4l-6.33-6.17Z"/>
      <path class="cls-1" d="m108.53,69.11v-9.66h2.07v7.59h6.25v2.07h-8.32Z"/>
      <path class="cls-1" d="m125.88,69.11c-2.75,0-4.77-2.13-4.77-4.93s2.02-4.73,4.77-4.73h2.39c2.84,0,4.81,1.93,4.81,4.73s-2.02,4.93-4.81,4.93h-2.39Zm2.39-2.07c1.61,0,2.74-1.16,2.74-2.75s-1.13-2.76-2.74-2.76h-2.39c-1.55,0-2.7,1.16-2.7,2.76s1.13,2.75,2.7,2.75h2.39Z"/>
      <path class="cls-1" d="m142.27,69.11c-2.75,0-4.77-2.13-4.77-4.93s2.02-4.73,4.77-4.73h5.33v2.07h-5.33c-1.55,0-2.7,1.16-2.7,2.76s1.13,2.75,2.7,2.75h5.33v2.07h-5.33Z"/>
      <path class="cls-1" d="m152.3,69.11v-9.66h2.07v9.66h-2.07Zm7.79,0l-4.74-4.09c-.36-.31-.43-.56-.43-.85,0-.35.12-.61.52-.94l4.47-3.77h3.1l-5.74,4.73,5.93,4.93h-3.1Z"/>
      <path class="cls-1" d="m167.7,69.11v-9.66h2.07v9.66h-2.07Z"/>
      <path class="cls-1" d="m176.8,62.68v6.43h-1.97v-8.56c0-.76.4-1.22,1.04-1.22.31,0,.54.11.84.39l6.33,6.07v-6.43h1.98v8.65c0,.77-.42,1.24-1.04,1.24-.32,0-.57-.12-.85-.4l-6.33-6.17Z"/>
      <path class="cls-1" d="m194.47,69.11c-2.75,0-4.77-2.13-4.77-4.93s2.02-4.73,4.77-4.73h5.33v2.07h-5.33c-1.55,0-2.7,1.16-2.7,2.76s1.13,2.75,2.7,2.75h3.85v-2.02h-4.08v-1.63h6.15v5.73h-5.93Z"/>
      <path class="cls-1" d="m212.72,69.11v-9.66h5.69c2.78,0,4.79,1.93,4.79,4.73s-2.01,4.93-4.79,4.93h-5.69Zm5.69-2.07c1.57,0,2.71-1.16,2.71-2.75s-1.14-2.76-2.71-2.76h-3.63v5.52h3.63Z"/>
      <path class="cls-1" d="m236.53,69.11l-2.35-2.63h-3v-1.77h3.75c1.01,0,1.57-.6,1.57-1.62s-.58-1.57-1.57-1.57h-4.96v7.59h-2.06v-9.66h7.02c2.26,0,3.6,1.4,3.6,3.59,0,1.58-.74,2.68-1.95,3.16l2.9,2.91h-2.94Z"/>
      <path class="cls-1" d="m243.67,69.11v-9.66h8.77v2.07h-6.71v5.52h6.72v2.07h-8.79Zm3.27-4.09v-1.63h5.13v1.63h-5.13Z"/>
      <path class="cls-1" d="m267.07,69.11l-1.36-2.29h-4.08l.94-1.61h2.18l-1.77-2.98-4.05,6.87h-2.35l5.49-9.13c.24-.4.54-.66,1-.66s.76.27,1,.66l5.49,9.13h-2.49Z"/>
      <path class="cls-1" d="m285.83,69.11l-1.58-6.1-2.58,5.46c-.24.49-.54.77-1.05.77s-.82-.28-1.05-.77l-2.56-5.46-1.57,6.1h-2.03l2.37-8.94c.15-.56.48-.84,1.01-.84.43,0,.82.25,1.04.69l2.87,6.14,2.87-6.14c.2-.44.54-.69.98-.69.5,0,.84.28.98.84l2.35,8.94h-2.05Z"/>
      <path class="cls-1" d="m292.32,69.11v-2.07h7.3c.74,0,1.17-.39,1.17-1,0-.65-.43-1.02-1.17-1.02h-4.37c-1.9,0-3.07-1.14-3.07-2.78s1.09-2.79,3.1-2.79h6.99v2.07h-6.99c-.58,0-.94.33-.94.93s.37.93.94.93h4.35c2.03,0,3.12.9,3.12,2.83,0,1.66-1.02,2.9-3.12,2.9h-7.3Z"/>
    </g>
  </g>
  <g>
    <path class="cls-3" d="m33.47,26.19c-7.22,0-13.1-5.88-13.1-13.1S26.25,0,33.47,0s13.1,5.88,13.1,13.1-5.88,13.1-13.1,13.1Zm0-20.34c-3.99,0-7.24,3.25-7.24,7.24s3.25,7.24,7.24,7.24,7.24-3.25,7.24-7.24-3.25-7.24-7.24-7.24Z"/>
    <path class="cls-2" d="m39.73,31.08h-16.11c-3.74,0-5.22-1.84-6.35-3.42-1.74-2.1-1.91-16.58-1.91-16.58,0-.06,0-.12-.02-.18,0,0,0-.02,0-.03-.22-1.42-2.04-1.94-3.04-.91C-.48,20.64.49,31.83.52,32.13h0c-.17,3.48.67,6.98,2.5,10.1,3.05,5.19,8.42,8.45,14.37,8.72.27,0,.55.02.84.02h20.7c2.25,0,4.06,1.91,3.91,4.19-.14,2.08-1.97,3.65-4.05,3.65H9.77c-2.69,0-5.14,1.09-6.91,2.87-1.77,1.77-2.87,4.21-2.87,6.91,0,5.39,4.38,9.78,9.77,9.78h30.3c3.19,0,6.29-.63,9.14-1.82,2.85-1.2,5.47-2.96,7.71-5.24,4.47-4.55,6.88-10.58,6.78-16.97-.21-12.81-10.97-23.23-23.97-23.23Zm13.02,36.1c-3.37,3.42-7.87,5.31-12.67,5.31H9.91c-2.09,0-3.91-1.57-4.05-3.65-.15-2.28,1.66-4.19,3.91-4.19h29.15c5.52,0,9.98-4.59,9.76-10.15-.2-5.29-4.71-9.39-10-9.39h-20.46c-.19,0-.38,0-.57-.01-4.02-.18-7.51-2.31-9.58-5.84-.72-1.22-1.21-2.99-1.48-4.93.01-.32.04-.67.02-1.07-.26-5.17,2.35-10.37,3.82-12.52v.1s-1.94,11.43,6.78,15.53c1.09.38,2.22.57,3.37.57h19.15c9.83,0,17.95,7.84,18.11,17.47.08,4.81-1.73,9.35-5.1,12.77Z"/>
  </g>
</svg>